<svg width="60" height="60" viewBox="0 0 60 60" fill="none" xmlns="http://www.w3.org/2000/svg">
<rect width="60" height="60" rx="16" fill="#41495C"/>
<path fill-rule="evenodd" clip-rule="evenodd" d="M15.2323 24.164H16.7326C16.9822 24.164 17.1846 23.9616 17.1846 23.7119V23.7119C17.1846 23.1073 17.3061 22.531 17.5236 22.0055C17.7525 21.4602 18.083 20.9657 18.4984 20.5533C18.9108 20.1408 19.4053 19.8074 19.9506 19.5785C20.4761 19.3582 21.0524 19.2367 21.657 19.2367H29.3814C29.4032 19.2367 29.4209 19.219 29.4209 19.1971V19.1971V17.543C29.4209 17.3033 29.2684 17.0909 29.0593 16.9736V16.9736C28.8982 16.8776 28.7485 16.7617 28.6185 16.6318C28.4151 16.4283 28.2512 16.1854 28.1382 15.9141C28.0309 15.6542 27.9715 15.366 27.9715 15.0694C27.9715 14.7699 28.0309 14.4845 28.1382 14.2246C28.2512 13.9534 28.4151 13.7076 28.6185 13.5042C28.822 13.3007 29.0649 13.1369 29.3362 13.0239C29.5961 12.9137 29.8843 12.8572 30.1809 12.8572C30.4776 12.8572 30.7657 12.9165 31.0257 13.0239C31.2969 13.1369 31.5427 13.3007 31.7461 13.5042C31.9495 13.7076 32.1134 13.9506 32.2264 14.2246C32.3338 14.4845 32.3931 14.7727 32.3931 15.0694C32.3931 15.3689 32.3338 15.6542 32.2264 15.9141C32.1134 16.1854 31.9495 16.4312 31.7461 16.6318L31.7348 16.6431C31.6049 16.7702 31.4608 16.8832 31.3026 16.9764V16.9764C31.0961 17.0973 30.9409 17.3068 30.9409 17.546V19.1999V19.1999C30.9409 19.2218 30.9586 19.2395 30.9805 19.2395H38.7048C39.3094 19.2395 39.8858 19.361 40.4113 19.5814C40.9594 19.8102 41.451 20.1408 41.8635 20.5561C42.276 20.9686 42.6093 21.463 42.8382 22.0083C43.0586 22.5366 43.1772 23.1101 43.1772 23.7148V23.7148C43.1772 23.9644 43.3796 24.1668 43.6293 24.1668H45.0589C45.3188 24.1668 45.5731 24.2177 45.8019 24.3137C46.0421 24.4126 46.254 24.5567 46.432 24.7375L46.4433 24.7488C46.6184 24.9268 46.7597 25.1359 46.8557 25.3704C46.9518 25.602 47.0027 25.8507 47.0027 26.1134V31.3063C47.0027 31.5662 46.9518 31.8205 46.8557 32.0493C46.7569 32.2867 46.6128 32.5014 46.432 32.6794C46.0816 33.0297 45.5928 33.2501 45.056 33.2501H44.8612C43.9241 33.2501 43.1902 34.0294 42.8297 34.8944V34.8944C42.6009 35.4425 42.2703 35.9341 41.855 36.3466C41.4425 36.7591 40.9481 37.0925 40.4028 37.3213C39.8745 37.5417 39.3009 37.6604 38.6963 37.6604V37.6604C37.0455 37.6604 35.7072 38.9987 35.7072 40.6495V42.1103C35.7072 43.7939 37.072 45.1587 38.7555 45.1587H40.2748C40.3651 45.1587 40.4463 45.1107 40.4989 45.0372V45.0372C40.5554 44.9553 40.6175 44.8818 40.6853 44.8112C40.8322 44.6642 41.0102 44.5428 41.2108 44.4608C41.4029 44.3817 41.612 44.3393 41.8296 44.3393C42.0443 44.3393 42.259 44.3817 42.4483 44.4608C42.6489 44.5428 42.8241 44.6642 42.9738 44.8112C43.1207 44.9581 43.2422 45.1361 43.3241 45.3367C43.4032 45.5288 43.4456 45.7379 43.4456 45.9554C43.4456 46.1729 43.4004 46.3792 43.3241 46.5741C43.2422 46.7747 43.1207 46.9527 42.9738 47.0996C42.8269 47.2466 42.6489 47.368 42.4483 47.45C42.2562 47.5291 42.0471 47.5715 41.8296 47.5715C41.6197 47.5715 41.4181 47.5327 41.2276 47.455C41.2239 47.4536 41.2202 47.4523 41.2164 47.4514V47.4514C41.2127 47.4504 41.209 47.4493 41.2055 47.4478C41.0071 47.3659 40.8337 47.2453 40.6853 47.0996C40.5949 47.0092 40.513 46.9019 40.4452 46.7917V46.7917C40.3774 46.677 40.2581 46.5939 40.1249 46.5939H34.9867C34.7861 46.5939 34.6081 46.512 34.4753 46.382C34.3397 46.2492 34.2606 46.0684 34.2606 45.8678V39.4135C34.2606 38.4452 33.4757 37.6604 32.5075 37.6604V37.6604C31.5393 37.6604 30.7544 38.4452 30.7544 39.4135V44.3237C30.7544 44.4358 30.8194 44.5342 30.9127 44.5964V44.5964C31.0087 44.6558 31.0991 44.7321 31.1782 44.8083C31.328 44.9581 31.4466 45.1332 31.5286 45.3338C31.6077 45.526 31.6501 45.735 31.6501 45.9526C31.6501 46.1625 31.6113 46.3641 31.5336 46.5546C31.5322 46.5582 31.5309 46.5619 31.53 46.5657V46.5657C31.529 46.5694 31.5278 46.5731 31.5264 46.5767C31.4445 46.775 31.3238 46.9484 31.1782 47.0968C31.0313 47.2437 30.8533 47.3652 30.6527 47.4472C30.4606 47.5263 30.2515 47.5686 30.034 47.5686C29.8165 47.5686 29.6074 47.5234 29.4153 47.4472C29.2147 47.3652 29.0367 47.2437 28.8898 47.0968C28.7428 46.9499 28.6214 46.7719 28.5394 46.5713C28.4631 46.3792 28.4179 46.1701 28.4179 45.9526C28.4179 45.7427 28.4567 45.5411 28.5344 45.3506C28.5358 45.347 28.5371 45.3432 28.538 45.3394V45.3394C28.539 45.3357 28.5401 45.332 28.5416 45.3285C28.6235 45.1301 28.7441 44.9567 28.8898 44.8083C28.966 44.7292 29.0536 44.6614 29.1469 44.6021L29.1582 44.5936V44.5936C29.2547 44.54 29.3164 44.4397 29.3164 44.3294V39.9997C29.3164 38.7077 28.269 37.6604 26.977 37.6604V37.6604C25.6851 37.6604 24.6377 38.7077 24.6377 39.9997V41.4378C24.6377 41.6384 24.5558 41.8164 24.4258 41.9463C24.293 42.0791 24.115 42.1582 23.9144 42.1582H20.7672C20.6632 42.1582 20.567 42.2164 20.5128 42.3051V42.3051C20.4563 42.3899 20.3913 42.4718 20.315 42.5453L20.3009 42.5566C20.154 42.7035 19.976 42.825 19.7754 42.9069C19.5833 42.986 19.3742 43.0284 19.1566 43.0284C18.9448 43.0284 18.7413 42.986 18.5492 42.9097V42.9097C18.5417 42.9079 18.5343 42.9055 18.5271 42.9025C18.331 42.8206 18.1595 42.7009 18.0124 42.5566C17.8655 42.4097 17.744 42.2317 17.6621 42.0311C17.583 41.839 17.5406 41.6299 17.5406 41.4123C17.5406 41.1976 17.5858 40.9857 17.6621 40.7908C17.744 40.5902 17.8655 40.4122 18.0124 40.2653C18.165 40.1212 18.3486 39.9997 18.5492 39.9178C18.7413 39.8387 18.9504 39.7963 19.1679 39.7963C19.3883 39.7963 19.5974 39.8415 19.7867 39.9178C19.9765 39.9987 20.1498 40.1128 20.2929 40.2573C20.2964 40.2607 20.3 40.2639 20.3039 40.2668V40.2668C20.3075 40.2696 20.311 40.2725 20.3142 40.2758C20.3943 40.3565 20.4688 40.448 20.5297 40.545V40.545C20.5896 40.6483 20.6996 40.7173 20.819 40.7173H21.6683C22.5125 40.7173 23.1968 40.033 23.1968 39.1888V39.1888C23.1968 38.3447 22.504 37.6604 21.6599 37.6604V37.6604C21.0552 37.6604 20.4789 37.5389 19.9534 37.3213C19.4053 37.0925 18.9137 36.7619 18.5012 36.3466C18.0859 35.9341 17.7525 35.4397 17.5236 34.8944V34.8944C17.1633 34.0297 16.4324 33.2501 15.4955 33.2501H15.2323C14.9724 33.2501 14.7181 33.1992 14.4893 33.1032C14.2491 33.0043 14.0372 32.8602 13.8592 32.6794L13.8479 32.6681C13.6728 32.4901 13.5315 32.281 13.4354 32.0465C13.3366 31.8177 13.2857 31.5634 13.2857 31.3035V26.1106C13.2857 25.8507 13.3366 25.5964 13.4354 25.3675C13.5343 25.1302 13.6784 24.9155 13.8592 24.7375C14.0372 24.5595 14.252 24.4126 14.4893 24.3137C14.7181 24.2177 14.9696 24.164 15.2323 24.164ZM26.186 32.5183C26.1464 32.4873 26.1153 32.4562 26.0842 32.4166C25.9938 32.3064 25.9458 32.1793 25.943 32.0522C25.9402 31.9222 25.9825 31.7951 26.0673 31.6821C26.0984 31.6425 26.1295 31.6086 26.1718 31.5747C26.3159 31.456 26.5052 31.3939 26.6917 31.3911C26.8782 31.3882 27.0646 31.4419 27.2144 31.5549C27.7257 31.9476 28.2286 32.233 28.7287 32.4223C29.2231 32.6088 29.7119 32.6963 30.195 32.6907C30.681 32.685 31.1726 32.5833 31.6755 32.394C32.184 32.2019 32.6926 31.9137 33.2124 31.5436C33.365 31.4334 33.5543 31.3854 33.7408 31.3939C33.9272 31.4024 34.1137 31.4673 34.255 31.5916C34.2917 31.6256 34.3228 31.6595 34.3539 31.7018C34.4358 31.8177 34.4753 31.9476 34.4669 32.0776C34.4584 32.2076 34.4075 32.3319 34.3143 32.4392C34.2804 32.476 34.2437 32.5099 34.1985 32.5409C33.5487 33.0099 32.896 33.3659 32.2321 33.6117C31.5681 33.8547 30.8957 33.9847 30.2148 33.9931C29.5311 34.0016 28.8559 33.8858 28.1834 33.6428C27.5167 33.4027 26.8527 33.0297 26.2001 32.5296L26.186 32.5183ZM24.4767 24.1244C24.6405 24.1244 24.8072 24.1414 24.9626 24.1724C25.1208 24.2064 25.279 24.2516 25.4288 24.3137C25.5813 24.3759 25.7283 24.455 25.8611 24.5454C25.9938 24.633 26.1153 24.7319 26.2255 24.842L26.2425 24.8562C26.3583 24.972 26.4628 25.0963 26.5532 25.2348L26.5589 25.2432C26.6465 25.376 26.7228 25.5173 26.7849 25.6698C26.8471 25.8196 26.8951 25.9778 26.9262 26.136C26.9573 26.2942 26.977 26.4581 26.977 26.622C26.977 26.7858 26.9601 26.9525 26.9262 27.1079C26.8951 27.2661 26.8471 27.4215 26.7849 27.5769C26.7228 27.7295 26.6437 27.8764 26.5532 28.0092C26.2792 28.4217 25.8865 28.7409 25.4288 28.9274C25.279 28.9896 25.1208 29.0376 24.9598 29.0715C24.8016 29.1026 24.6377 29.1167 24.4738 29.1167C24.31 29.1167 24.1433 29.0997 23.9879 29.0715C23.8297 29.0376 23.6715 28.9924 23.5189 28.9274C23.3663 28.8652 23.2194 28.7861 23.0838 28.6957C22.9425 28.6025 22.8182 28.498 22.7052 28.3849C22.5894 28.2691 22.4848 28.1448 22.3944 28.0064L22.3888 27.9979C22.3012 27.8651 22.2249 27.7238 22.1628 27.5713C22.1006 27.4215 22.0526 27.2633 22.0187 27.1051C21.9876 26.9469 21.9735 26.783 21.9735 26.6191C21.9735 26.4553 21.9904 26.2886 22.0187 26.1332C22.0526 25.975 22.0978 25.8168 22.1628 25.667C22.2249 25.5145 22.304 25.3675 22.3944 25.2348C22.4877 25.0935 22.5922 24.9692 22.7052 24.8562C22.821 24.7403 22.9454 24.6358 23.0838 24.5454L23.0923 24.5397C23.2251 24.4522 23.3663 24.3759 23.5189 24.3137C23.6686 24.2516 23.8268 24.2035 23.9851 24.1724C24.1461 24.1414 24.31 24.1244 24.4767 24.1244ZM35.888 24.1244C36.0519 24.1244 36.2185 24.1414 36.3739 24.1724C36.5322 24.2064 36.6904 24.2516 36.8401 24.3137C36.9927 24.3759 37.1396 24.455 37.2724 24.5454C37.4023 24.633 37.521 24.729 37.6312 24.8392C37.6368 24.8449 37.6453 24.8505 37.651 24.8562C37.7668 24.972 37.8713 25.0963 37.9617 25.2348L37.9674 25.2432C38.055 25.376 38.1313 25.5173 38.1934 25.6698C38.2556 25.8196 38.3036 25.9778 38.3375 26.136C38.3686 26.2942 38.3827 26.4581 38.3827 26.622C38.3827 26.7858 38.3658 26.9525 38.3375 27.1079C38.3036 27.2661 38.2584 27.4244 38.1934 27.5769C38.1313 27.7295 38.0522 27.8764 37.9617 28.0092C37.8685 28.1505 37.764 28.2748 37.651 28.3878C37.5351 28.5036 37.4108 28.6081 37.2724 28.6986L37.2639 28.7042C37.1283 28.7918 36.9899 28.8681 36.8373 28.9302C36.6875 28.9924 36.5293 29.0404 36.3683 29.0743C36.2101 29.1054 36.0462 29.1195 35.8823 29.1195C35.7185 29.1195 35.5518 29.1026 35.3964 29.0743C35.2382 29.0404 35.08 28.9952 34.9274 28.9302C34.772 28.8652 34.6251 28.7861 34.4951 28.6986L34.481 28.6873C34.3482 28.5968 34.2267 28.498 34.1165 28.3878C34.0007 28.2719 33.8962 28.1476 33.8058 28.0092L33.8001 28.0007C33.7125 27.8679 33.6362 27.7267 33.5741 27.5741C33.5119 27.4244 33.4639 27.2661 33.43 27.1079C33.3989 26.9497 33.382 26.7858 33.382 26.622C33.382 26.4581 33.3989 26.2914 33.43 26.136C33.4639 25.9778 33.5091 25.8196 33.5741 25.6698C33.6362 25.5173 33.7153 25.3704 33.8058 25.2376C33.899 25.0963 34.0035 24.972 34.1165 24.859C34.2295 24.746 34.3567 24.6414 34.4951 24.5482C34.6307 24.4578 34.7748 24.3815 34.9274 24.3137C35.0771 24.2516 35.2353 24.2035 35.3936 24.1724C35.5603 24.1414 35.7241 24.1244 35.888 24.1244ZM18.278 24.7149V33.1879C18.278 33.6428 18.3684 34.0779 18.5323 34.4763C18.7046 34.8888 18.9561 35.2617 19.2668 35.5753C19.5804 35.8889 19.9534 36.1404 20.3659 36.3099C20.7614 36.4737 21.1965 36.5642 21.6542 36.5642H38.7076C39.1625 36.5642 39.5976 36.4737 39.996 36.3099C40.4084 36.1375 40.7814 35.8861 41.095 35.5753C41.4086 35.2617 41.66 34.8888 41.8296 34.4763C41.9934 34.0807 42.0838 33.6456 42.0838 33.1879V23.7119C42.0838 23.2571 41.9934 22.8191 41.8296 22.4236C41.6572 22.0111 41.4058 21.6382 41.095 21.3246C40.7814 21.011 40.4084 20.7595 39.996 20.59C39.6004 20.4261 39.1653 20.3357 38.7076 20.3357H21.657C21.2022 20.3357 20.7671 20.4261 20.3687 20.59C19.9562 20.7623 19.5833 21.0138 19.2697 21.3246C18.9561 21.6382 18.7046 22.0111 18.5351 22.4236C18.3712 22.8191 18.2808 23.2542 18.2808 23.7119L18.278 24.7149ZM17.1818 27.2096C17.1818 26.133 16.309 25.2602 15.2323 25.2602V25.2602C15.1165 25.2602 15.0063 25.2828 14.9074 25.3223C14.8049 25.3667 14.7133 25.4273 14.6352 25.5041C14.6321 25.5072 14.6288 25.5101 14.6252 25.5128V25.5128C14.6212 25.5158 14.6175 25.5191 14.6141 25.5227C14.5429 25.5978 14.4827 25.6863 14.4441 25.7829C14.4017 25.8817 14.3819 25.9919 14.3819 26.1078V31.3006C14.3819 31.4165 14.4045 31.5267 14.4441 31.6256C14.4893 31.7301 14.5514 31.8233 14.6305 31.9024C14.7831 32.055 14.995 32.1511 15.2295 32.1511V32.1511C16.3077 32.1511 17.1818 31.277 17.1818 30.1988V27.2096ZM45.0645 25.2602V25.2602C44.0253 25.2602 43.1829 26.1026 43.1829 27.1418V30.2694C43.1829 31.3086 44.0253 32.1511 45.0645 32.1511V32.1511C45.1804 32.1511 45.2905 32.1285 45.3894 32.0889C45.494 32.0437 45.5872 31.9815 45.6663 31.9024C45.7454 31.8233 45.8104 31.7301 45.8528 31.6256C45.8951 31.5267 45.9149 31.4165 45.9149 31.3006V26.1106C45.9149 25.9948 45.8923 25.8846 45.8528 25.7857C45.8076 25.6811 45.7454 25.5879 45.6663 25.5088C45.5872 25.4297 45.494 25.3647 45.3894 25.3223C45.2905 25.2856 45.1804 25.2602 45.0645 25.2602Z" fill="#D4D5F3"/>
</svg>
