<svg width="49" height="50" viewBox="0 0 49 50" fill="none" xmlns="http://www.w3.org/2000/svg">
<path fill-rule="evenodd" clip-rule="evenodd" d="M2.80378 16.2855H4.9646C5.32419 16.2855 5.61569 15.994 5.61569 15.6344V15.6344C5.61569 14.7636 5.79067 13.9334 6.10401 13.1765C6.43363 12.3911 6.90974 11.679 7.50794 11.0849C8.10206 10.4908 8.81419 10.0106 9.59958 9.68096C10.3565 9.36355 11.1866 9.18857 12.0575 9.18857H23.183C23.2145 9.18857 23.24 9.16307 23.24 9.1316V9.1316V6.74916C23.24 6.40385 23.0203 6.09797 22.7191 5.92903V5.92903C22.4872 5.79067 22.2715 5.62383 22.0843 5.43664C21.7913 5.14365 21.5553 4.79368 21.3925 4.40303C21.2379 4.02865 21.1524 3.61358 21.1524 3.18629C21.1524 2.75494 21.2379 2.34394 21.3925 1.96956C21.5553 1.5789 21.7913 1.22487 22.0843 0.931879C22.3773 0.638887 22.7273 0.402865 23.1179 0.240091C23.4923 0.0813868 23.9074 0 24.3347 0C24.7619 0 25.177 0.0854562 25.5514 0.240091C25.9421 0.402865 26.2961 0.638887 26.5891 0.931879C26.8821 1.22487 27.1181 1.57484 27.2809 1.96956C27.4355 2.34394 27.521 2.75901 27.521 3.18629C27.521 3.61764 27.4355 4.02865 27.2809 4.40303C27.1181 4.79368 26.8821 5.14772 26.5891 5.43664L26.5728 5.45292C26.3856 5.63604 26.1781 5.79881 25.9502 5.9331V5.9331C25.6528 6.10717 25.4293 6.40891 25.4293 6.75348V9.13567V9.13567C25.4293 9.16714 25.4548 9.19264 25.4863 9.19264H36.6119C37.4827 9.19264 38.3129 9.36762 39.0697 9.68503C39.8592 10.0146 40.5673 10.4908 41.1614 11.089C41.7555 11.6831 42.2357 12.3952 42.5653 13.1806C42.8827 13.9416 43.0536 14.7676 43.0536 15.6385V15.6385C43.0536 15.9981 43.3451 16.2896 43.7047 16.2896H45.7638C46.1382 16.2896 46.5044 16.3628 46.834 16.5012C47.1799 16.6436 47.4851 16.8511 47.7415 17.1116L47.7578 17.1279C48.0101 17.3842 48.2136 17.6854 48.3519 18.0231C48.4903 18.3568 48.5635 18.7149 48.5635 19.0933V26.5728C48.5635 26.9472 48.4903 27.3134 48.3519 27.643C48.2095 27.9849 48.002 28.2941 47.7415 28.5505C47.2369 29.0551 46.5329 29.3725 45.7597 29.3725H45.4791C44.1293 29.3725 43.0722 30.4949 42.5531 31.7409V31.7409C42.2235 32.5303 41.7474 33.2384 41.1492 33.8325C40.5551 34.4266 39.8429 34.9068 39.0575 35.2364C38.2966 35.5538 37.4705 35.7247 36.5997 35.7247V35.7247C34.2219 35.7247 32.2943 37.6523 32.2943 40.0301V42.1342C32.2943 44.559 34.26 46.5248 36.6849 46.5248H38.8731C39.0033 46.5248 39.1202 46.4557 39.1959 46.3498V46.3498C39.2773 46.2318 39.3668 46.126 39.4645 46.0243C39.6761 45.8126 39.9324 45.6377 40.2214 45.5197C40.4981 45.4057 40.7992 45.3447 41.1126 45.3447C41.4218 45.3447 41.7311 45.4057 42.0037 45.5197C42.2927 45.6377 42.545 45.8126 42.7606 46.0243C42.9722 46.2359 43.1472 46.4922 43.2652 46.7811C43.3792 47.0579 43.4402 47.359 43.4402 47.6723C43.4402 47.9857 43.3751 48.2827 43.2652 48.5635C43.1472 48.8524 42.9722 49.1088 42.7606 49.3204C42.549 49.532 42.2927 49.707 42.0037 49.825C41.727 49.939 41.4259 50 41.1126 50C40.8102 50 40.5199 49.9441 40.2455 49.8323C40.2403 49.8302 40.2349 49.8284 40.2294 49.827V49.827C40.2241 49.8257 40.2188 49.824 40.2137 49.8219C39.928 49.7039 39.6782 49.5301 39.4645 49.3204C39.3343 49.1902 39.2162 49.0356 39.1186 48.8769V48.8769C39.021 48.7117 38.8491 48.592 38.6573 48.592H31.2566C30.9677 48.592 30.7113 48.474 30.5201 48.2868C30.3247 48.0955 30.2108 47.8351 30.2108 47.5462V38.2498C30.2108 36.8552 29.0803 35.7247 27.6858 35.7247V35.7247C26.2912 35.7247 25.1607 36.8552 25.1607 38.2498V45.3222C25.1607 45.4837 25.2543 45.6254 25.3886 45.715V45.715C25.527 45.8004 25.6572 45.9103 25.7711 46.0202C25.9868 46.2359 26.1577 46.4882 26.2757 46.7771C26.3897 47.0538 26.4507 47.3549 26.4507 47.6683C26.4507 47.9706 26.3948 48.2609 26.283 48.5353C26.2809 48.5406 26.2791 48.5459 26.2778 48.5514V48.5514C26.2764 48.5568 26.2747 48.562 26.2726 48.5671C26.1546 48.8529 25.9809 49.1026 25.7711 49.3163C25.5595 49.528 25.3032 49.7029 25.0142 49.8209C24.7375 49.9349 24.4364 49.9959 24.1231 49.9959C23.8097 49.9959 23.5086 49.9308 23.2319 49.8209C22.9429 49.7029 22.6866 49.528 22.475 49.3163C22.2634 49.1047 22.0884 48.8484 21.9704 48.5595C21.8605 48.2827 21.7954 47.9816 21.7954 47.6683C21.7954 47.3659 21.8513 47.0756 21.9631 46.8012C21.9652 46.796 21.967 46.7906 21.9684 46.7851V46.7851C21.9697 46.7798 21.9714 46.7745 21.9735 46.7694C22.0915 46.4837 22.2652 46.2339 22.475 46.0202C22.5848 45.9062 22.711 45.8086 22.8453 45.7231L22.8616 45.7109V45.7109C23.0005 45.6337 23.0894 45.4893 23.0894 45.3303V39.0942C23.0894 37.2333 21.5809 35.7247 19.72 35.7247V35.7247C17.8592 35.7247 16.3506 37.2333 16.3506 39.0942V41.1655C16.3506 41.4544 16.2326 41.7107 16.0454 41.8979C15.8542 42.0892 15.5978 42.2031 15.3089 42.2031H10.7758C10.6261 42.2031 10.4875 42.2869 10.4094 42.4147V42.4147C10.328 42.5368 10.2344 42.6548 10.1245 42.7606L10.1042 42.7769C9.89257 42.9885 9.6362 43.1635 9.34728 43.2815C9.07056 43.3955 8.76943 43.4565 8.45609 43.4565C8.15089 43.4565 7.8579 43.3955 7.58118 43.2856V43.2856C7.57035 43.2829 7.5597 43.2794 7.54939 43.2751C7.26694 43.1572 7.01981 42.9847 6.80801 42.7769C6.5964 42.5653 6.42142 42.3089 6.30341 42.02C6.18947 41.7433 6.12843 41.4422 6.12843 41.1288C6.12843 40.8196 6.19354 40.5144 6.30341 40.2336C6.42142 39.9447 6.5964 39.6883 6.80801 39.4767C7.02775 39.2691 7.29226 39.0942 7.58118 38.9762C7.8579 38.8622 8.15903 38.8012 8.47237 38.8012C8.78978 38.8012 9.09091 38.8663 9.36355 38.9762C9.637 39.0928 9.8866 39.2571 10.0927 39.4651C10.0977 39.4701 10.1029 39.4747 10.1085 39.4789V39.4789C10.1138 39.4828 10.1187 39.4871 10.1233 39.4918C10.2387 39.6081 10.346 39.7399 10.4338 39.8795V39.8795C10.5199 40.0284 10.6785 40.1278 10.8504 40.1278H12.0737C13.2896 40.1278 14.2753 39.1421 14.2753 37.9263V37.9263C14.2753 36.7104 13.2774 35.7247 12.0615 35.7247V35.7247C11.1907 35.7247 10.3605 35.5498 9.60365 35.2364C8.81419 34.9068 8.10613 34.4307 7.512 33.8325C6.91381 33.2384 6.43363 32.5262 6.10401 31.7409V31.7409C5.58504 30.4953 4.53221 29.3725 3.18289 29.3725H2.80378C2.4294 29.3725 2.06316 29.2993 1.73354 29.1609C1.38765 29.0185 1.08244 28.8109 0.826076 28.5505L0.809799 28.5342C0.5575 28.2779 0.354033 27.9767 0.215675 27.639C0.0732481 27.3093 0 26.9431 0 26.5687V19.0893C0 18.7149 0.0732481 18.3487 0.215675 18.019C0.358102 17.6772 0.565638 17.3679 0.826076 17.1116C1.08244 16.8552 1.39171 16.6436 1.73354 16.5012C2.06316 16.3628 2.42533 16.2855 2.80378 16.2855ZM18.5806 28.3185C18.5236 28.2738 18.4789 28.229 18.4341 28.1721C18.3039 28.0133 18.2347 27.8302 18.2306 27.6471C18.2266 27.4599 18.2876 27.2768 18.4097 27.114C18.4545 27.057 18.4992 27.0082 18.5603 26.9594C18.7678 26.7885 19.0404 26.6989 19.309 26.6949C19.5776 26.6908 19.8462 26.7681 20.0619 26.9309C20.7984 27.4965 21.5227 27.9075 22.243 28.1802C22.9552 28.4488 23.6592 28.5749 24.355 28.5668C25.0549 28.5586 25.763 28.4121 26.4873 28.1395C27.2198 27.8628 27.9523 27.4477 28.7011 26.9146C28.9208 26.7559 29.1935 26.6867 29.462 26.6989C29.7306 26.7112 29.9992 26.8048 30.2027 26.9838C30.2556 27.0326 30.3003 27.0815 30.3451 27.1425C30.4631 27.3093 30.5201 27.4965 30.5079 27.6837C30.4956 27.8709 30.4224 28.05 30.2881 28.2046C30.2393 28.2575 30.1864 28.3063 30.1213 28.3511C29.1853 29.0266 28.2453 29.5393 27.289 29.8934C26.3327 30.2433 25.3642 30.4305 24.3835 30.4427C23.3987 30.455 22.4261 30.2881 21.4576 29.9381C20.4973 29.5923 19.541 29.0551 18.601 28.3348L18.5806 28.3185ZM16.1187 16.2285C16.3547 16.2285 16.5948 16.2529 16.8186 16.2977C17.0465 16.3465 17.2744 16.4117 17.49 16.5012C17.7098 16.5907 17.9214 16.7046 18.1126 16.8349C18.3039 16.961 18.4789 17.1034 18.6376 17.2621L18.662 17.2825C18.8288 17.4493 18.9794 17.6284 19.1096 17.8278L19.1178 17.84C19.2439 18.0313 19.3538 18.2347 19.4433 18.4545C19.5328 18.6701 19.602 18.898 19.6468 19.1259C19.6915 19.3538 19.72 19.5898 19.72 19.8258C19.72 20.0619 19.6956 20.3019 19.6468 20.5258C19.602 20.7536 19.5328 20.9775 19.4433 21.2013C19.3538 21.421 19.2398 21.6326 19.1096 21.8239C18.7149 22.418 18.1493 22.8778 17.49 23.1464C17.2744 23.2359 17.0465 23.3051 16.8145 23.354C16.5866 23.3987 16.3506 23.4191 16.1146 23.4191C15.8786 23.4191 15.6385 23.3946 15.4147 23.354C15.1868 23.3051 14.9589 23.24 14.7392 23.1464C14.5194 23.0569 14.3078 22.9429 14.1125 22.8127C13.909 22.6784 13.73 22.5279 13.5672 22.3651C13.4003 22.1983 13.2498 22.0192 13.1196 21.8198L13.1114 21.8076C12.9853 21.6163 12.8754 21.4129 12.7859 21.1931C12.6963 20.9775 12.6272 20.7496 12.5783 20.5217C12.5336 20.2938 12.5132 20.0578 12.5132 19.8218C12.5132 19.5857 12.5376 19.3456 12.5783 19.1218C12.6272 18.894 12.6923 18.6661 12.7859 18.4504C12.8754 18.2306 12.9893 18.019 13.1196 17.8278C13.2538 17.6243 13.4044 17.4453 13.5672 17.2825C13.734 17.1157 13.9131 16.9651 14.1125 16.8349L14.1247 16.8267C14.3159 16.7006 14.5194 16.5907 14.7392 16.5012C14.9548 16.4117 15.1827 16.3425 15.4106 16.2977C15.6425 16.2529 15.8786 16.2285 16.1187 16.2285ZM32.5547 16.2285C32.7908 16.2285 33.0308 16.2529 33.2547 16.2977C33.4825 16.3465 33.7104 16.4117 33.9261 16.5012C34.1458 16.5907 34.3575 16.7046 34.5487 16.8349C34.7359 16.961 34.9068 17.0994 35.0655 17.2581C35.0737 17.2662 35.0859 17.2744 35.094 17.2825C35.2608 17.4493 35.4114 17.6284 35.5416 17.8278L35.5498 17.84C35.6759 18.0313 35.7858 18.2347 35.8753 18.4545C35.9648 18.6701 36.034 18.898 36.0828 19.1259C36.1276 19.3538 36.148 19.5898 36.148 19.8258C36.148 20.0619 36.1235 20.3019 36.0828 20.5258C36.034 20.7536 35.9689 20.9815 35.8753 21.2013C35.7858 21.421 35.6718 21.6326 35.5416 21.8239C35.4073 22.0273 35.2568 22.2064 35.094 22.3692C34.9272 22.536 34.7481 22.6866 34.5487 22.8168L34.5365 22.8249C34.3412 22.9511 34.1418 23.061 33.922 23.1505C33.7064 23.24 33.4785 23.3092 33.2465 23.358C33.0186 23.4028 32.7826 23.4231 32.5466 23.4231C32.3106 23.4231 32.0705 23.3987 31.8467 23.358C31.6188 23.3092 31.3909 23.2441 31.1712 23.1505C30.9473 23.0569 30.7357 22.9429 30.5485 22.8168L30.5282 22.8005C30.3369 22.6703 30.162 22.5279 30.0033 22.3692C29.8364 22.2023 29.6858 22.0233 29.5556 21.8239L29.5475 21.8117C29.4213 21.6204 29.3115 21.4169 29.2219 21.1972C29.1324 20.9815 29.0632 20.7536 29.0144 20.5258C28.9696 20.2979 28.9452 20.0619 28.9452 19.8258C28.9452 19.5898 28.9696 19.3497 29.0144 19.1259C29.0632 18.898 29.1283 18.6701 29.2219 18.4545C29.3115 18.2347 29.4254 18.0231 29.5556 17.8319C29.6899 17.6284 29.8405 17.4493 30.0033 17.2866C30.166 17.1238 30.3491 16.9732 30.5485 16.8389C30.7439 16.7087 30.9514 16.5988 31.1712 16.5012C31.3868 16.4117 31.6147 16.3425 31.8426 16.2977C32.0827 16.2529 32.3187 16.2285 32.5547 16.2285ZM7.19053 17.079V29.283C7.19053 29.9381 7.32075 30.5648 7.55677 31.1386C7.805 31.7327 8.16717 32.2699 8.6148 32.7216C9.06649 33.1733 9.60365 33.5354 10.1978 33.7796C10.7675 34.0156 11.3942 34.1458 12.0534 34.1458H36.6159C37.2711 34.1458 37.8978 34.0156 38.4716 33.7796C39.0657 33.5314 39.6028 33.1692 40.0545 32.7216C40.5062 32.2699 40.8684 31.7327 41.1126 31.1386C41.3486 30.5689 41.4788 29.9422 41.4788 29.283V15.6344C41.4788 14.9792 41.3486 14.3485 41.1126 13.7788C40.8643 13.1847 40.5022 12.6475 40.0545 12.1958C39.6028 11.7441 39.0657 11.3819 38.4716 11.1378C37.9018 10.9018 37.2752 10.7715 36.6159 10.7715H12.0575C11.4023 10.7715 10.7756 10.9018 10.2018 11.1378C9.60771 11.386 9.07056 11.7482 8.61887 12.1958C8.16717 12.6475 7.805 13.1847 7.56084 13.7788C7.32481 14.3485 7.1946 14.9752 7.1946 15.6344L7.19053 17.079ZM5.61162 20.6723C5.61162 19.1215 4.35451 17.8644 2.80378 17.8644V17.8644C2.63693 17.8644 2.47823 17.897 2.3358 17.9539C2.18821 18.0178 2.05626 18.105 1.94378 18.2158C1.93925 18.2202 1.93446 18.2244 1.92938 18.2282V18.2282C1.92362 18.2326 1.91821 18.2373 1.91326 18.2425C1.81072 18.3507 1.72406 18.4782 1.66843 18.6172C1.60739 18.7597 1.5789 18.9184 1.5789 19.0852V26.5647C1.5789 26.7315 1.61146 26.8902 1.66843 27.0326C1.73354 27.1832 1.82307 27.3175 1.93701 27.4314C2.15675 27.6512 2.46195 27.7895 2.79971 27.7895V27.7895C4.35268 27.7895 5.61162 26.5306 5.61162 24.9776V20.6723ZM45.772 17.8644V17.8644C44.2752 17.8644 43.0618 19.0778 43.0618 20.5746V25.0793C43.0618 26.5761 44.2752 27.7895 45.772 27.7895V27.7895C45.9388 27.7895 46.0975 27.757 46.2399 27.7C46.3905 27.6349 46.5248 27.5454 46.6387 27.4314C46.7527 27.3175 46.8463 27.1832 46.9073 27.0326C46.9683 26.8902 46.9968 26.7315 46.9968 26.5647V19.0893C46.9968 18.9224 46.9643 18.7637 46.9073 18.6213C46.8422 18.4707 46.7527 18.3365 46.6387 18.2225C46.5248 18.1086 46.3905 18.015 46.2399 17.9539C46.0975 17.901 45.9388 17.8644 45.772 17.8644Z" fill="#41495C"/>
</svg>
